<svg xmlns="http://www.w3.org/2000/svg" width="1536" height="1024" viewBox="0 0 1536 1024" version="1.1">
	<path d="M 1140.620 340.884 C 1127.247 355.384, 1125.463 358.908, 1125.627 370.500 C 1125.747 378.970, 1126.279 381.341, 1130.562 392.500 C 1130.985 393.600, 1129.185 391.678, 1126.564 388.229 C 1120.732 380.554, 1111.063 373.441, 1104.359 371.893 C 1100.423 370.985, 1097.042 371.083, 1087.625 372.377 C 1081.134 373.270, 1074.049 374, 1071.880 374 C 1069.463 374, 1067.734 374.530, 1067.411 375.371 C 1066.836 376.869, 1073.397 404.311, 1075.576 409.527 C 1078.745 417.111, 1088.241 423.851, 1098.106 425.518 C 1100.248 425.880, 1102 426.493, 1102 426.880 C 1102 427.268, 1100.088 428.104, 1097.750 428.737 C 1095.412 429.371, 1091 431.404, 1087.944 433.255 C 1083.658 435.851, 1080.345 436.922, 1073.444 437.940 C 1047.453 441.776, 1015.029 454.719, 989.676 471.379 C 970.215 484.166, 948.249 503.911, 925.590 528.986 C 903.866 553.026, 890.523 565.256, 873 577.187 C 864.106 583.243, 854.702 589, 853.705 589 C 853.463 589, 852.058 587.176, 850.583 584.946 C 847.315 580.007, 837.731 573.629, 830.980 571.898 C 825.964 570.613, 824.300 569, 827.989 569 C 835.008 569, 846.968 561.143, 851.361 553.647 C 854.033 549.088, 858.771 531.095, 859.234 523.746 L 859.500 519.538 852 518.346 C 826.709 514.328, 817.327 515.617, 808.671 524.299 C 805.819 527.159, 802.512 530.850, 801.322 532.500 C 799.295 535.311, 799.320 535.059, 801.733 528.500 C 805.147 519.222, 805.400 508.524, 802.364 501.913 C 800.547 497.959, 781.231 475.037, 779.012 474.204 C 778.025 473.833, 760.939 492.154, 757.360 497.422 C 751.799 505.604, 750.698 514.667, 753.987 525.161 C 755.080 528.647, 755.980 531.566, 755.987 531.647 C 755.994 531.727, 752.962 528.765, 749.250 525.064 C 738.933 514.779, 732.856 513.423, 711.008 516.528 C 696.633 518.571, 696.747 518.522, 697.521 522.337 C 699.656 532.854, 704.551 551.021, 706.053 554 C 709.094 560.034, 716.536 565.637, 724.717 568.052 C 728.940 569.299, 729.624 571, 725.901 571 C 723.489 571, 716.698 574.330, 712.146 577.744 C 707.425 581.286, 703.653 589.959, 699.797 606.145 L 696.500 619.980 690.893 619.990 C 680.280 620.009, 655.248 611.274, 638.202 601.602 C 619.335 590.897, 610.652 584.071, 607.543 577.499 C 603.032 567.963, 604.681 563.638, 615.586 556.399 C 624.609 550.410, 629.170 544.422, 634.482 531.595 C 637.678 523.877, 640.686 518.405, 643.627 514.959 C 646.038 512.136, 647.756 509.414, 647.446 508.913 C 645.736 506.146, 623.949 510.318, 614.822 515.160 C 606.785 519.424, 601.489 524.725, 598.148 531.852 C 595.841 536.773, 595.509 538.723, 595.573 547 C 595.640 555.564, 596.059 557.626, 599.827 567.928 C 603.574 578.171, 603.773 579.145, 601.753 577.329 C 544.493 525.858, 519.054 505.409, 493.098 489.989 C 487.003 486.368, 485.460 484.905, 483.903 481.273 C 480.710 473.825, 477.043 470.091, 467.280 464.345 C 459.009 459.477, 458.050 458.628, 459.167 457.162 C 459.864 456.248, 460.500 455.373, 460.582 455.219 C 460.663 455.064, 464.159 456.966, 468.352 459.444 C 472.545 461.923, 478.232 464.690, 480.991 465.592 C 488.060 467.904, 497.102 467.173, 504.050 463.728 C 509.453 461.048, 522.137 450.991, 522.893 448.786 C 523.521 446.957, 509.072 434.303, 502.590 431.006 C 494.085 426.680, 487.159 426.834, 474.342 431.635 L 464.638 435.271 462.730 432.915 C 460.834 430.574, 460.837 430.555, 463.161 429.849 C 464.448 429.458, 469.411 427.976, 474.191 426.555 C 485.673 423.142, 490.447 419.453, 495.127 410.375 C 499.112 402.644, 503.211 384.366, 501.232 383.144 C 500.659 382.790, 495.085 382.772, 488.845 383.105 C 471.085 384.051, 465.335 387.746, 455.432 404.571 C 449.409 414.806, 449.020 415.248, 447.086 414.053 C 446.065 413.422, 446.807 411.163, 450.384 404.018 C 454.530 395.735, 455 394.097, 455 387.921 C 455 376.952, 449.895 365.531, 440.190 354.789 C 438.308 352.705, 436.158 351, 435.413 351 C 433.245 351, 421.004 365.954, 417.955 372.328 C 412.319 384.107, 413.322 393.464, 421.590 406.246 C 424.016 409.995, 426 413.446, 426 413.915 C 426 414.383, 425.152 414.988, 424.116 415.259 C 422.629 415.648, 420.903 413.725, 415.918 406.126 C 403.056 386.517, 397.032 383, 376.306 383 L 367.711 383 368.261 390.250 C 368.898 398.659, 372.855 410.810, 376.522 415.617 C 379.913 420.063, 385.493 423.142, 397.250 427.055 C 407.023 430.307, 407.471 430.610, 406.449 433.273 C 405.995 434.456, 404.357 434.172, 397.199 431.671 C 379.033 425.322, 366.917 428.176, 353.640 441.928 C 349.908 445.793, 347.144 449.423, 347.496 449.994 C 347.849 450.565, 348.627 450.731, 349.224 450.362 C 349.871 449.962, 350.021 450.156, 349.597 450.844 C 349.191 451.501, 350.058 453.006, 351.614 454.345 L 354.344 456.693 346.422 457.372 C 323.260 459.359, 293.924 466.157, 274.290 474.088 C 247.299 484.989, 231.240 494.458, 192.250 522.459 C 188.813 524.927, 186 526.779, 186 526.574 C 186 526.369, 187.636 523.793, 189.635 520.850 C 195.112 512.788, 201.728 498.477, 204.128 489.500 C 207.182 478.079, 207.949 450.430, 205.522 439.303 C 200.874 417.997, 188.788 404.834, 167.500 397.895 C 161.425 395.915, 158.599 395.630, 146.116 395.740 C 138.205 395.810, 131.328 396.272, 130.833 396.767 C 129.300 398.300, 130.856 400.456, 136.395 404.469 C 139.789 406.929, 143.865 411.419, 147.613 416.829 C 156.401 429.513, 167.439 442.427, 172.771 446.262 C 175.372 448.133, 181.100 451.603, 185.500 453.973 C 204.301 464.101, 205.747 467.825, 199.400 489.763 C 193.792 509.145, 183.223 525.435, 166.925 539.817 C 148.779 555.829, 130.249 566.946, 113.880 571.642 C 105.436 574.064, 103.830 574.210, 92.131 573.619 C 85.184 573.269, 78.150 572.874, 76.500 572.741 C 74.086 572.547, 73.500 572.891, 73.500 574.500 C 73.500 577.659, 81.287 579.316, 96.500 579.395 C 108.613 579.458, 110.124 579.246, 118.648 576.285 C 128.870 572.733, 144.934 563.561, 158.500 553.529 C 189.029 530.954, 210.554 520.156, 231.248 517.033 C 242.892 515.276, 246.314 516.998, 253.620 528.292 C 259.491 537.368, 268.101 545.820, 275.635 549.905 C 278.861 551.654, 289.825 555.782, 300 559.077 C 310.175 562.373, 320.422 565.998, 322.770 567.134 C 331.643 571.423, 332.135 567.602, 324.468 553.944 C 304.269 517.954, 289.030 508.868, 251.540 510.459 C 233.396 511.230, 226.945 512.169, 216.641 515.543 C 212.319 516.958, 208.589 517.922, 208.352 517.685 C 207.800 517.133, 233 500.743, 244.052 494.465 C 274.652 477.085, 312.179 465.606, 346.824 463.028 C 359.699 462.070, 360.338 462.116, 365.824 464.391 C 378.156 469.506, 386.666 468.650, 400.129 460.941 C 409.478 455.587, 410.504 455.266, 411.336 457.434 C 411.713 458.414, 408.979 460.755, 402.693 464.835 C 391.888 471.849, 389.822 473.887, 386.959 480.360 C 384.543 485.821, 384.200 495.073, 386.037 505.206 C 387.607 513.860, 388.609 516, 391.090 516 C 395.091 516, 413.938 506.115, 418.339 501.708 C 423.624 496.416, 425.642 492.163, 427.674 482.029 C 428.561 477.608, 429.883 473.205, 430.611 472.245 C 431.773 470.715, 431.940 471.067, 431.968 475.103 C 431.986 477.635, 432.285 482.436, 432.634 485.772 C 433.151 490.716, 433.640 491.934, 435.284 492.364 C 437.244 492.877, 437.283 492.574, 436.687 481.446 C 436.113 470.735, 436.193 470, 437.933 470 C 439.490 470, 440.065 471.503, 441.474 479.250 C 444.409 495.399, 449.076 502.916, 460.125 509.295 C 465.724 512.527, 479.538 517.391, 481.251 516.734 C 482.926 516.091, 485.198 507.414, 485.931 498.860 L 486.500 492.220 498.406 499.457 C 519.125 512.050, 538.088 527.130, 576.608 561.642 C 603.139 585.412, 620.315 598.002, 640.650 608.582 C 646.618 611.687, 651.600 614.314, 651.723 614.420 C 651.846 614.526, 648.476 614.241, 644.233 613.787 C 625.167 611.744, 608.687 617.893, 595.774 631.866 C 588.421 639.823, 585.817 644.355, 581.042 657.509 C 577.697 666.724, 576.934 671, 578.636 671 C 578.867 671, 581.707 669.662, 584.947 668.027 C 588.186 666.392, 594.361 664.124, 598.668 662.989 C 624.547 656.166, 633.706 650.370, 644.517 633.974 C 648.080 628.570, 652.182 623.215, 653.633 622.074 C 656.841 619.551, 664.695 619.275, 670.910 621.468 C 676.490 623.437, 689.386 625.836, 701 627.066 C 713.427 628.382, 742.539 628.365, 746.993 627.040 C 751.626 625.661, 752.320 625.725, 751.651 627.467 C 751.341 628.274, 751.750 631.162, 752.558 633.885 C 754.022 638.813, 760.168 647.084, 772.321 660.478 C 778.701 667.512, 777.303 668.026, 789.742 654.073 C 800.753 641.722, 803.222 636.859, 803.745 626.500 C 804.139 618.685, 803.792 616.989, 799.449 605.500 C 799.034 604.400, 800.607 606.324, 802.946 609.775 C 807.727 616.829, 811.369 619.948, 818.513 623.109 C 822.903 625.051, 824.468 625.208, 833.458 624.614 C 842.805 623.996, 860.230 621.103, 861.350 619.984 C 861.621 619.713, 860.303 613.871, 858.421 607.003 C 856.540 600.135, 855 594.265, 855 593.959 C 855 593.652, 856.462 592.871, 858.250 592.222 C 860.038 591.572, 868.700 586.743, 877.500 581.489 C 897.197 569.728, 909.121 563.832, 922.192 559.387 C 939.087 553.642, 945.171 552.536, 960 552.517 C 975.493 552.497, 985.587 554.859, 990.345 559.618 C 993.507 562.780, 993.622 564.902, 991.329 577.743 C 988.099 595.821, 992.087 608.172, 1005.396 621.317 C 1013.817 629.634, 1023.817 635.572, 1035.310 639.080 C 1042.406 641.245, 1043.190 640.294, 1039.561 633.923 C 1037.078 629.566, 1034.684 620.183, 1031.543 602.500 C 1029.415 590.519, 1025.520 582.830, 1016.907 573.608 C 1005.006 560.864, 991.141 551.847, 978.249 548.467 C 961.322 544.029, 929.940 548.778, 908.922 558.960 C 905.470 560.632, 902.462 562, 902.239 562 C 901.375 562, 929.433 532.581, 948.500 513.496 C 973.760 488.212, 990.884 475.143, 1014.029 463.485 C 1023.813 458.557, 1040.438 451.902, 1051.034 448.673 C 1059.940 445.958, 1076.298 441.964, 1076.732 442.398 C 1076.872 442.538, 1076.078 444.532, 1074.969 446.828 C 1072.600 451.732, 1065.715 479.730, 1066.548 481.077 C 1066.861 481.585, 1068.927 482, 1071.139 482 C 1073.350 482, 1080.610 482.709, 1087.270 483.576 C 1100.097 485.244, 1104.199 484.959, 1110.006 481.997 C 1115.285 479.304, 1123.322 471.731, 1127.023 465.964 C 1128.802 463.192, 1130.430 461.097, 1130.641 461.307 C 1130.852 461.518, 1130.154 463.673, 1129.090 466.095 C 1126.358 472.314, 1124.710 482.585, 1125.498 488.483 C 1126.660 497.189, 1129.958 502.730, 1141.049 514.613 C 1146.797 520.771, 1151.803 525.852, 1152.174 525.905 C 1153.321 526.067, 1173.392 503.177, 1175.363 499.458 C 1178.915 492.755, 1179.023 480.596, 1175.613 471.202 C 1172.793 463.432, 1172.778 463.348, 1174.694 466 C 1182.207 476.399, 1192.770 483.824, 1201.250 484.666 C 1204.382 484.976, 1211.542 484.344, 1219 483.097 C 1225.875 481.948, 1232.746 481.006, 1234.269 481.004 C 1237.477 480.999, 1237.602 482.663, 1232.914 463 C 1228.583 444.835, 1226.380 440.033, 1220.337 435.586 C 1217.677 433.629, 1213.351 431.208, 1210.724 430.208 L 1205.947 428.390 1211.555 426.066 C 1225.612 420.239, 1255.914 424.079, 1280.903 434.852 C 1311.845 448.192, 1338.143 472.434, 1352.470 500.824 C 1366.012 527.661, 1368.391 568.582, 1358.349 602 C 1348.015 636.394, 1318.764 672.398, 1285.405 691.784 C 1272.674 699.183, 1257.505 704.216, 1242.238 706.109 C 1233.059 707.247, 1232.270 707.198, 1228.500 705.255 C 1226.300 704.122, 1221.135 700.227, 1217.022 696.600 C 1205.914 686.805, 1200.893 684.978, 1181 683.496 C 1176.325 683.147, 1169.232 681.993, 1165.239 680.931 C 1156.534 678.616, 1156 678.589, 1156 680.453 C 1156 683.413, 1168.282 702.112, 1174.121 708.043 C 1180.853 714.880, 1191.294 720.539, 1199.151 721.611 C 1205.172 722.432, 1216.591 719.905, 1225.043 715.883 C 1229.251 713.880, 1234.809 712.314, 1241 711.386 C 1285.061 704.784, 1319.212 681.461, 1346.749 639.168 C 1356.537 624.134, 1359.898 619.990, 1367.292 613.837 C 1374.548 607.798, 1376.075 607.800, 1387.853 613.864 C 1403.439 621.888, 1404.659 622.090, 1433.747 621.471 C 1447.911 621.169, 1459.620 620.578, 1459.767 620.158 C 1460.060 619.324, 1450.654 606.596, 1445.610 601 C 1435.081 589.320, 1423.091 582.937, 1410.330 582.218 C 1396.584 581.444, 1391.337 584.177, 1371.750 602.317 C 1365.287 608.302, 1360 613.008, 1360 612.774 C 1360 612.541, 1361.135 609.014, 1362.521 604.937 C 1368.454 587.493, 1370.797 566.438, 1369.080 546 C 1368.087 534.182, 1367.361 529.575, 1361.914 500.500 C 1360.677 493.900, 1359.628 484.824, 1359.583 480.331 C 1359.482 470.404, 1360.688 468.376, 1370.083 462.668 C 1384.775 453.741, 1391.888 444.818, 1396.523 429.500 C 1399.506 419.642, 1401.961 414.191, 1405.614 409.317 C 1407.931 406.226, 1408.772 402.984, 1407.250 403.015 C 1404.751 403.065, 1382.537 410.153, 1377.706 412.442 C 1364.666 418.620, 1354.654 431.896, 1353.023 445.174 C 1352.150 452.271, 1354.142 478.011, 1356.487 489.942 C 1357.291 494.035, 1357.802 497.532, 1357.621 497.712 C 1357.441 497.892, 1355.250 494.544, 1352.752 490.270 C 1343.055 473.680, 1326.037 456.269, 1307.242 443.712 C 1283.790 428.042, 1254.351 418, 1231.869 418 C 1224.783 418, 1222.346 417.140, 1224.921 415.549 C 1227.633 413.873, 1237.476 376.616, 1235.602 375.119 C 1234.302 374.080, 1214.056 371.910, 1205.274 371.868 C 1201.247 371.849, 1197.586 372.532, 1194.575 373.864 C 1188.947 376.353, 1180.201 384.483, 1175.449 391.643 C 1173.493 394.589, 1171.686 397, 1171.433 397 C 1171.180 397, 1171.708 395.313, 1172.607 393.250 C 1177.057 383.036, 1178.186 377.651, 1177.694 369 C 1177.403 363.882, 1176.473 358.821, 1175.356 356.279 C 1173.370 351.762, 1153.646 329.942, 1151.678 330.086 C 1151.030 330.134, 1146.054 334.993, 1140.620 340.884 M 1143.266 344.866 C 1132.057 355.601, 1130.042 359.432, 1130.048 370 C 1130.052 378.779, 1132.552 387.008, 1138.348 397.326 C 1142.600 404.895, 1143.810 405.547, 1141.511 399.030 C 1137.984 389.036, 1141.182 386.557, 1145.420 396 C 1146.900 399.300, 1148.312 402, 1148.556 402 C 1148.800 402, 1148.998 397.387, 1148.996 391.750 L 1148.993 381.500 1144.396 379.610 C 1139.218 377.480, 1136.010 373.212, 1136.004 368.446 C 1135.999 364.591, 1140.279 357.930, 1146.852 351.563 L 1151.949 346.625 1158.818 353.674 C 1162.596 357.550, 1166.684 362.781, 1167.902 365.297 C 1169.964 369.557, 1170.011 370.079, 1168.578 372.848 C 1166.588 376.698, 1162.707 379.708, 1157.865 381.159 L 1154 382.317 1154 392.658 C 1154 398.346, 1154.363 403, 1154.807 403 C 1155.252 403, 1156.514 400.189, 1157.613 396.753 C 1158.901 392.728, 1160.214 390.390, 1161.306 390.180 C 1163.495 389.758, 1163.579 393.680, 1161.487 398.686 C 1159.171 404.229, 1160.499 403.821, 1164.346 397.808 C 1171.087 387.270, 1173.420 380.411, 1173.462 371 C 1173.511 360.126, 1171.745 356.491, 1160.716 344.761 L 1152.500 336.022 1143.266 344.866 M 1146.050 358.410 C 1140.374 365.158, 1139.280 368.252, 1141.415 371.511 C 1142.297 372.857, 1144.296 374.619, 1145.858 375.426 C 1148.660 376.876, 1148.710 376.850, 1149.744 373.483 C 1150.514 370.972, 1150.480 369.813, 1149.612 369.093 C 1148.002 367.757, 1145.563 369.420, 1146.303 371.348 C 1146.703 372.389, 1146.447 372.725, 1145.526 372.372 C 1142.162 371.081, 1143.140 365.725, 1146.961 364.512 C 1148.041 364.170, 1149.729 364.310, 1150.712 364.825 C 1151.696 365.339, 1153.923 365.544, 1155.661 365.280 C 1158.237 364.888, 1159.132 365.273, 1160.497 367.356 C 1162.271 370.063, 1161.831 372, 1159.441 372 C 1158.648 372, 1158 371.100, 1158 370 C 1158 367.733, 1156.963 367.437, 1155.200 369.200 C 1153.678 370.722, 1153.623 377, 1155.132 377 C 1157.473 377, 1163.026 372.746, 1163.583 370.525 C 1163.909 369.228, 1163.432 366.802, 1162.497 364.993 C 1160.420 360.977, 1153.132 352.979, 1151.623 353.060 C 1151.005 353.093, 1148.497 355.500, 1146.050 358.410 M 429.746 362.965 C 422.736 371.596, 420.022 378.074, 420.010 386.206 C 420.001 392.351, 420.437 393.752, 425.222 402.956 C 428.095 408.480, 430.843 413, 431.329 413 C 431.816 413, 431.886 412.212, 431.484 411.250 C 426.533 399.375, 426.203 394.797, 430.025 390.975 C 431.665 389.335, 432 387.632, 432 380.934 C 432 372.284, 433.109 368.721, 435.515 369.644 C 436.679 370.091, 437 372.201, 437 379.420 C 437 388.343, 437.092 388.714, 440 391.500 C 443.577 394.927, 443.863 398.813, 441.121 406.750 C 440.123 409.637, 439.576 411.996, 439.904 411.990 C 440.232 411.985, 442.720 407.830, 445.434 402.757 C 449.857 394.492, 450.363 392.896, 450.311 387.383 C 450.269 382.967, 449.516 379.623, 447.641 375.528 C 445.128 370.038, 436.204 356.940, 435.057 357.057 C 434.751 357.088, 432.361 359.747, 429.746 362.965 M 1087 376.051 C 1084.525 376.491, 1080.700 376.892, 1078.500 376.941 C 1071.555 377.096, 1071.563 377.034, 1076.304 394.184 C 1078.670 402.745, 1081.363 410.905, 1082.288 412.317 C 1085.936 417.884, 1105.789 424.172, 1118.881 423.906 L 1123.500 423.813 1117.250 421.871 C 1113.470 420.696, 1111 419.373, 1111 418.523 C 1111 416.212, 1112.385 416.018, 1118.080 417.534 C 1121.061 418.327, 1124.348 418.982, 1125.385 418.988 C 1127.051 418.999, 1126.993 418.782, 1124.885 417.127 C 1123.573 416.097, 1118.984 413.121, 1114.686 410.513 L 1106.871 405.772 1104.686 407.761 C 1101.357 410.790, 1098.483 412, 1094.617 412 C 1091.814 412, 1090.591 411.330, 1088.578 408.691 C 1085.684 404.897, 1080.329 386.271, 1081.729 384.871 C 1083.313 383.287, 1097.992 380.975, 1102.196 381.647 C 1104.413 382.002, 1107.358 383.264, 1108.739 384.452 C 1110.890 386.302, 1111.231 387.392, 1111.116 392.056 C 1111.043 395.050, 1110.874 398.574, 1110.741 399.888 C 1110.536 401.915, 1111.934 403.160, 1120 408.136 C 1125.225 411.360, 1129.906 413.998, 1130.402 413.999 C 1130.898 413.999, 1128.717 411.287, 1125.554 407.971 C 1120.823 403.011, 1120.018 401.683, 1121.015 400.482 C 1122.505 398.687, 1122.931 398.943, 1128.687 405.097 C 1131.226 407.810, 1133.490 409.843, 1133.719 409.614 C 1133.948 409.385, 1131.567 404.991, 1128.427 399.849 C 1122.128 389.533, 1112.756 379.703, 1106.520 376.870 C 1102.270 374.939, 1094.969 374.633, 1087 376.051 M 1194.946 378.826 C 1188.535 382.901, 1180.932 391.666, 1175.120 401.682 C 1169.995 410.513, 1169.103 413.698, 1173.236 408.406 C 1178.935 401.110, 1180.920 399.426, 1181.970 401 C 1183.497 403.291, 1183.360 403.582, 1177.926 409.582 C 1175.135 412.664, 1173.080 415.413, 1173.358 415.692 C 1173.637 415.970, 1178.381 413.116, 1183.901 409.349 C 1191.171 404.388, 1193.761 402.087, 1193.298 401 C 1192.262 398.566, 1191.745 391.153, 1192.423 388.451 C 1193.508 384.126, 1196.519 382, 1201.557 382 C 1209.039 382, 1220.129 384.172, 1220.737 385.757 C 1221.545 387.862, 1219.086 400.830, 1216.939 405.784 C 1214.404 411.634, 1209.715 413.743, 1204.287 411.475 C 1202.244 410.622, 1199.767 409.194, 1198.783 408.303 C 1197.394 407.047, 1196.479 406.916, 1194.711 407.722 C 1191.892 409.006, 1179.627 418.759, 1179.156 420.091 C 1178.967 420.626, 1181.217 420.149, 1184.156 419.032 C 1190.601 416.583, 1190 416.589, 1190 418.975 C 1190 420.342, 1188.631 421.574, 1185.555 422.975 C 1183.110 424.089, 1180.635 425, 1180.055 425 C 1179.475 425, 1179 425.450, 1179 426 C 1179 427.239, 1177.723 427.347, 1190.667 425.016 C 1214.977 420.639, 1220.342 417.496, 1224.414 405.243 C 1227.674 395.434, 1231.130 379.705, 1230.205 378.884 C 1229.307 378.088, 1210.453 376, 1204.160 376 C 1200.642 376, 1198.225 376.741, 1194.946 378.826 M 1089.250 386.723 C 1087.463 386.945, 1086 387.300, 1086 387.512 C 1086 387.723, 1087.157 391.632, 1088.570 396.198 C 1092.102 407.608, 1094.732 409.451, 1101.500 405.262 C 1103.467 404.045, 1103.459 403.992, 1101.047 402.105 C 1098.873 400.404, 1098.729 399.891, 1099.776 397.593 C 1100.818 395.306, 1100.737 395, 1099.088 395 C 1097.675 395, 1097.108 395.916, 1096.765 398.750 C 1096.516 400.813, 1096.692 402.650, 1097.156 402.833 C 1098.324 403.295, 1098.220 405, 1097.023 405 C 1094.967 405, 1092.812 400.134, 1093.493 397.030 C 1094.390 392.946, 1096.523 391, 1100.103 391 C 1103.388 391, 1105.168 393.625, 1102.896 395.120 C 1101.747 395.876, 1101.843 396.300, 1103.441 397.519 C 1105.969 399.448, 1106.964 397.978, 1106.985 392.285 C 1106.996 389.132, 1106.513 387.810, 1105.066 387.035 C 1103.196 386.035, 1095.952 385.892, 1089.250 386.723 M 1197.593 387.550 C 1196.163 388.980, 1195.906 390.297, 1196.381 393.765 C 1197.194 399.691, 1197.695 400.246, 1200.545 398.379 C 1202.107 397.355, 1203.923 397.015, 1205.591 397.433 C 1207.488 397.909, 1208.072 397.736, 1207.739 396.794 C 1207.457 395.996, 1205.886 395.584, 1203.641 395.720 C 1199.297 395.983, 1198.574 393.607, 1202.459 391.837 C 1207.458 389.559, 1212.469 395.920, 1210.373 401.881 C 1209.870 403.311, 1208.685 404.630, 1207.740 404.812 C 1206.299 405.089, 1206.127 404.617, 1206.672 401.888 L 1207.323 398.634 1204.162 400.885 C 1202.423 402.123, 1201 403.504, 1201 403.953 C 1201 405.445, 1206.084 408.129, 1208.309 407.812 C 1212.388 407.231, 1219.273 389.523, 1216.166 387.602 C 1215.581 387.241, 1211.571 386.673, 1207.255 386.340 C 1200.500 385.819, 1199.155 385.988, 1197.593 387.550 M 372 388.612 C 372 390.823, 375.944 402.977, 377.975 407.026 C 380.884 412.823, 384.525 416.682, 389.500 419.239 C 394.657 421.890, 409.688 426.978, 410.365 426.302 C 410.651 426.016, 408.318 424.500, 405.183 422.933 C 399.213 419.950, 394.870 414.730, 396.774 412.826 C 397.431 412.169, 398.904 412.969, 401.133 415.195 C 404.597 418.654, 410.585 421.748, 411.685 420.649 C 412.026 420.307, 410.982 417.887, 409.364 415.270 C 406.520 410.670, 403.400 408.744, 402.120 410.798 C 401.247 412.198, 389.767 410.817, 389.247 409.250 C 389.015 408.548, 389.653 408, 390.704 408 C 395.670 408, 389.625 399.065, 382.446 395.794 C 379.311 394.365, 379.274 392, 382.386 392 C 385.539 392, 395.971 399.085, 398.500 402.943 C 400.007 405.242, 401.254 405.995, 403.559 405.997 C 407.318 406.001, 408.834 407.177, 412.909 413.250 C 414.662 415.863, 416.528 418, 417.056 418 C 417.584 418, 415.907 414.738, 413.329 410.750 C 410.751 406.762, 407.710 402.030, 406.571 400.234 C 404.055 396.265, 398.594 392.323, 392.805 390.297 C 387.842 388.560, 372 387.277, 372 388.612 M 480.147 389.075 C 475.395 390.009, 468.422 393.717, 465.906 396.646 C 464.032 398.828, 453 417.370, 453 418.337 C 453 420.469, 455.266 418.278, 457.995 413.509 C 461.547 407.301, 464.265 405, 468.048 405 C 469.566 405, 471.662 403.914, 473.076 402.394 C 478.132 396.958, 487.749 391.703, 490.750 392.736 C 493.007 393.513, 492.065 394.926, 487.858 397.072 C 485.580 398.235, 481.497 401.261, 478.785 403.798 C 474.350 407.946, 473.915 408.734, 474.459 411.634 C 474.955 414.279, 474.524 415.472, 472.056 418.284 C 470.401 420.168, 466.984 422.498, 464.463 423.461 C 457.752 426.024, 459.740 426.470, 467.370 424.113 C 483.613 419.096, 490.813 412.230, 494.418 398.318 C 497.038 388.204, 496.948 387.982, 490.250 388.110 C 487.087 388.170, 482.541 388.604, 480.147 389.075 M 430 397.533 C 430 398.927, 431.205 402.414, 432.679 405.283 L 435.357 410.500 437.191 404.577 C 439.178 398.159, 438.837 394.060, 436.480 396.017 C 435.509 396.823, 434.565 396.837, 433.130 396.069 C 430.295 394.552, 430 394.690, 430 397.533 M 140 400.360 C 140 400.558, 141.495 402.305, 143.321 404.242 C 145.148 406.179, 149.825 412.204, 153.716 417.632 C 166.604 435.612, 173.384 441.734, 193.861 453.876 L 199.222 457.056 195.970 451.278 C 190.080 440.816, 184.925 433.950, 177.268 426.366 C 171.904 421.054, 170.024 418.576, 170.784 417.816 C 174.300 414.300, 196 437.803, 201.110 450.661 C 203.010 455.441, 203.209 451.592, 201.556 442.016 C 199.557 430.430, 195.469 422.229, 188.097 415.017 C 178.211 405.343, 164.133 400.043, 148.250 400.015 C 143.713 400.007, 140 400.162, 140 400.360 M 1143.655 408.459 C 1138.738 410.212, 1135.513 413.242, 1131.903 419.500 C 1128.635 425.165, 1128.033 432.229, 1130.423 436.852 C 1132.654 441.165, 1140.404 447.741, 1144.645 448.919 C 1157.920 452.604, 1168.390 447.021, 1173.552 433.502 C 1175.109 429.427, 1175.103 428.823, 1173.463 423.828 C 1170.928 416.107, 1164.204 409.615, 1157.201 408.126 C 1150.513 406.705, 1148.431 406.756, 1143.655 408.459 M 463.626 411.447 C 461.303 414.993, 459.014 421, 459.986 421 C 463.316 421, 471 415.368, 471 412.927 C 471 412.498, 469.672 411.484, 468.049 410.674 C 465.277 409.291, 465.008 409.338, 463.626 411.447 M 1391.383 411.395 C 1368.308 418.871, 1356.978 432.892, 1357.012 453.932 L 1357.024 461.500 1360.453 453.646 C 1366.960 438.742, 1376.573 425.277, 1379.015 427.649 C 1379.919 428.527, 1378.964 430.625, 1374.960 436.559 C 1370.618 442.993, 1362 459.627, 1362 461.573 C 1362 462.923, 1380.329 449.371, 1382.877 446.137 C 1386.676 441.315, 1391.193 432.121, 1393.998 423.500 C 1395.251 419.650, 1397.123 414.813, 1398.158 412.750 C 1399.194 410.688, 1399.694 409.020, 1399.270 409.045 C 1398.847 409.069, 1395.297 410.127, 1391.383 411.395 M 1145.209 414.668 C 1140.881 416.801, 1138.317 420.192, 1136.560 426.110 C 1133.412 436.711, 1140.062 445.002, 1151.710 444.998 C 1157.749 444.996, 1162.789 442.496, 1165.818 438 C 1168.971 433.319, 1168.623 423.886, 1165.134 419.430 C 1160.372 413.348, 1151.963 411.339, 1145.209 414.668 M 425 418.084 C 418.936 420.833, 416.336 423.441, 412.900 430.221 C 407.558 440.762, 410.013 452.576, 419.176 460.419 C 429.523 469.276, 447.079 466.194, 455.475 454.048 C 461.268 445.666, 459.812 430.232, 452.520 422.723 C 446.185 416.201, 433.770 414.108, 425 418.084 M 1147.449 419.551 C 1140.666 422.899, 1138.837 431.991, 1143.923 437.077 C 1150.717 443.870, 1163 438.201, 1163 428.272 C 1163 424.495, 1160.473 421.096, 1156.401 419.394 C 1152.243 417.657, 1151.252 417.674, 1147.449 419.551 M 427.121 424.112 C 424.335 425.528, 421.673 428.002, 419.799 430.918 C 417.161 435.026, 416.892 436.184, 417.203 442.110 C 417.486 447.517, 418.067 449.399, 420.391 452.445 C 427.693 462.019, 439.104 462.709, 448.339 454.136 C 452.430 450.338, 454.002 446.762, 453.984 441.300 C 453.937 427.703, 438.941 418.108, 427.121 424.112 M 428.984 427.852 C 416.127 434.684, 419.490 454.474, 433.717 455.699 C 445.846 456.743, 453.846 444.706, 448.148 433.984 C 444.246 426.640, 436.144 424.047, 428.984 427.852 M 1112.873 431.024 C 1102 431.852, 1095.352 433.757, 1088.776 437.927 C 1080.347 443.273, 1077.551 448.672, 1073.650 467.141 L 1071.403 477.781 1083.451 479.393 C 1097.422 481.262, 1101.860 481.384, 1105.504 479.999 C 1109.400 478.517, 1115.528 473.168, 1119.823 467.500 C 1124.239 461.673, 1133.265 446.932, 1132.739 446.406 C 1132.541 446.208, 1130.173 448.286, 1127.477 451.023 C 1124.781 453.760, 1122.221 456, 1121.788 456 C 1119.686 456, 1121.428 451.491, 1125.046 447.565 C 1127.408 445.004, 1128.661 442.908, 1128.056 442.534 C 1127.485 442.182, 1123.215 444.487, 1118.566 447.658 L 1110.115 453.422 1110.684 459.516 C 1111.329 466.421, 1109.694 470.844, 1105.476 473.608 C 1103.448 474.937, 1101.576 475.103, 1095.247 474.517 C 1088.422 473.884, 1081 471.887, 1081 470.682 C 1081 467.143, 1084.533 451.876, 1086.031 448.939 C 1090.099 440.964, 1096.732 440.052, 1103.593 446.523 C 1105.602 448.417, 1107.752 449.670, 1108.372 449.308 C 1109.248 448.797, 1116.348 443.647, 1124.917 437.308 C 1125.146 437.139, 1125.043 436.710, 1124.689 436.356 C 1124.335 436.001, 1122.107 436.451, 1119.739 437.356 C 1114.539 439.341, 1112 439.450, 1112 437.685 C 1112 436.197, 1116.900 433.620, 1121.763 432.552 C 1123.553 432.159, 1124.762 431.424, 1124.450 430.919 C 1124.137 430.413, 1123.571 430.065, 1123.191 430.145 C 1122.811 430.225, 1118.168 430.621, 1112.873 431.024 M 427.923 433.923 C 422.920 438.926, 424.583 448.342, 430.933 450.972 C 434.792 452.571, 438.178 451.706, 442.225 448.091 C 444.986 445.623, 445.410 444.615, 445.266 440.862 C 444.916 431.789, 434.303 427.543, 427.923 433.923 M 1180.500 432.996 C 1181.600 433.470, 1183.625 434.118, 1185 434.436 C 1188.534 435.254, 1191.608 437.795, 1190.446 438.939 C 1189.861 439.514, 1187.224 439.338, 1183.542 438.477 C 1180.264 437.710, 1177.377 437.290, 1177.125 437.542 C 1176.547 438.119, 1175.883 437.642, 1186.733 444.447 L 1195.965 450.238 1199.461 447.168 C 1206.188 441.262, 1213.813 441.963, 1216.694 448.752 C 1218.695 453.469, 1221.960 465.785, 1221.983 468.703 C 1222.005 471.500, 1217.543 472.963, 1206.682 473.720 C 1193.258 474.656, 1190.273 470.677, 1193.152 455.686 C 1193.417 454.304, 1191.120 452.487, 1183.500 448.053 C 1178 444.853, 1173.309 442.410, 1173.076 442.625 C 1172.842 442.839, 1175.250 445.433, 1178.425 448.388 C 1183.699 453.297, 1184.095 453.955, 1183.001 455.999 C 1181.822 458.200, 1181.715 458.150, 1176.426 452.927 C 1173.469 450.007, 1170.793 447.874, 1170.479 448.187 C 1170.166 448.501, 1173.092 453.517, 1176.982 459.334 C 1186.999 474.315, 1195.824 481.017, 1205.485 480.982 C 1210.328 480.964, 1230.984 478.350, 1231.665 477.668 C 1232.220 477.113, 1223.962 447.828, 1222.398 444.802 C 1219.117 438.457, 1209.456 434.775, 1191.576 433.052 C 1178.928 431.834, 1177.786 431.828, 1180.500 432.996 M 372.930 434.547 C 368.301 435.974, 354.500 446.574, 354.500 448.703 C 354.500 450.354, 364.189 457.754, 369.328 460.027 C 379.272 464.426, 387.135 463.563, 397.725 456.910 C 401.150 454.760, 404.357 453, 404.853 453 C 405.349 453, 406.315 452.325, 407 451.500 C 407.689 450.669, 407.800 450, 407.248 450 C 406.700 450, 404.338 450.675, 402 451.500 C 396.588 453.409, 390.304 453.407, 386.636 451.494 C 384.662 450.464, 380.717 450, 373.945 450 C 364.478 450, 361.501 449.099, 363.702 446.898 C 364.212 446.388, 369.009 445.683, 374.362 445.331 C 382.220 444.815, 384.276 444.352, 385.040 442.926 C 386.566 440.074, 392.499 438.673, 399.857 439.426 C 403.474 439.797, 406.092 439.759, 405.675 439.342 C 404.242 437.909, 385.498 433.075, 381.500 433.107 C 379.300 433.125, 375.443 433.773, 372.930 434.547 M 473.750 436.162 C 468.387 437.916, 464 439.752, 464 440.243 C 464 440.733, 464.788 440.903, 465.750 440.621 C 474.235 438.128, 481.066 438.889, 484.620 442.724 C 486.801 445.077, 487.938 445.371, 496.929 445.908 C 507.219 446.523, 509.219 447.181, 507.133 449.267 C 506.291 450.108, 502.658 450.445, 495.700 450.327 C 488.337 450.202, 484.884 450.550, 483.285 451.577 C 480.236 453.536, 474.965 453.358, 469.010 451.096 C 463.593 449.037, 461.232 449.914, 465.739 452.311 C 467.258 453.118, 471.586 455.459, 475.357 457.513 C 488.144 464.477, 496.524 463.510, 510.631 453.444 L 517.029 448.878 509.765 442.882 C 500.144 434.940, 497.711 433.765, 490.008 433.336 C 484.740 433.043, 481.642 433.581, 473.750 436.162 M 428.707 438.013 C 428.074 440.432, 429.233 445.244, 430.555 445.686 C 431.094 445.866, 431.351 443.854, 431.153 441.001 C 430.797 435.863, 429.639 434.448, 428.707 438.013 M 437.079 441.583 C 437.127 442.748, 437.364 442.985, 437.683 442.188 C 437.972 441.466, 437.936 440.603, 437.604 440.271 C 437.272 439.939, 437.036 440.529, 437.079 441.583 M 390.750 442.575 C 389.190 444.152, 390.043 447.714, 392.213 448.682 C 394.673 449.780, 406 447.455, 406 445.852 C 406 443.898, 392.344 440.964, 390.750 442.575 M 467.750 443.728 C 462.837 444.242, 463.005 445.469, 468.250 447.397 C 474.733 449.780, 480.344 449.916, 480.797 447.702 C 481.659 443.490, 478.687 442.584, 467.750 443.728 M 1090.497 451.416 C 1088.033 455.619, 1084.790 467.659, 1085.693 469.250 C 1085.927 469.663, 1089.939 470, 1094.610 470 L 1103.102 470 1104.551 466.532 C 1105.348 464.625, 1106 461.951, 1106 460.591 C 1106 457.942, 1104.191 456.118, 1103.138 457.707 C 1102.787 458.237, 1101.600 459.181, 1100.500 459.805 C 1098.636 460.862, 1098.687 460.941, 1101.250 460.970 C 1104.214 461.002, 1104.704 461.896, 1102.800 463.800 C 1100.822 465.778, 1098.679 465.163, 1095.250 461.633 C 1090.633 456.880, 1091.159 451, 1096.200 451 C 1098.441 451, 1098.473 451.820, 1096.324 454.195 C 1095.026 455.629, 1094.917 456.317, 1095.839 457.239 C 1096.761 458.161, 1097.737 457.725, 1100.153 455.308 L 1103.276 452.185 1100.684 449.593 C 1096.690 445.599, 1093.579 446.156, 1090.497 451.416 M 1203.646 449.594 L 1199.829 452.189 1202.019 454.520 C 1203.224 455.803, 1203.911 457.335, 1203.546 457.926 C 1202.242 460.035, 1204.917 458.957, 1206.463 456.750 C 1207.932 454.654, 1207.902 454.438, 1206.020 453.597 C 1203.258 452.363, 1203.479 451, 1206.441 451 C 1209.241 451, 1209.716 451.549, 1210.431 455.611 C 1211.467 461.489, 1205.179 467.359, 1200.595 464.793 C 1198.395 463.562, 1198.599 462.262, 1201.118 461.463 L 1203.235 460.791 1201.085 458.645 C 1199.237 456.802, 1198.800 456.711, 1197.982 458 C 1196.541 460.271, 1196.815 466.601, 1198.411 467.926 C 1200.719 469.842, 1206.305 470.286, 1212.339 469.033 C 1218.747 467.703, 1218.640 468.221, 1214.828 457.048 C 1213.171 452.188, 1209.675 447, 1208.058 447 C 1207.731 447, 1205.746 448.167, 1203.646 449.594 M 1164.500 452 C 1164.840 452.550, 1165.316 453, 1165.559 453 C 1165.802 453, 1166 452.550, 1166 452 C 1166 451.450, 1165.523 451, 1164.941 451 C 1164.359 451, 1164.160 451.450, 1164.500 452 M 1135.843 462.632 C 1130.761 473.036, 1130.538 473.839, 1130.195 482.982 C 1129.751 494.810, 1130.768 496.909, 1143.369 510.168 L 1152.238 519.500 1161.188 510 C 1166.111 504.775, 1170.998 498.700, 1172.047 496.500 C 1175.765 488.709, 1174.129 477.101, 1167.469 464.002 C 1164.190 457.552, 1161.093 452.843, 1161.032 454.213 C 1161.014 454.605, 1161.923 457.266, 1163.050 460.127 C 1164.822 464.622, 1164.907 465.521, 1163.679 466.750 C 1162.451 467.978, 1161.993 467.786, 1160.303 465.335 C 1159.229 463.776, 1157.748 460.925, 1157.014 459 C 1154.494 452.393, 1153.921 453.405, 1154.212 463.951 L 1154.500 474.377 1157.963 475.272 C 1162.145 476.353, 1166.607 479.397, 1168.099 482.186 C 1168.907 483.696, 1168.862 485.448, 1167.928 488.866 C 1166.937 492.493, 1165.055 495.093, 1159.272 500.828 L 1151.882 508.155 1145.691 502.723 C 1137.747 495.754, 1135 491.705, 1135 486.968 C 1135 483.897, 1135.691 482.608, 1138.888 479.721 C 1141.026 477.789, 1144.176 475.901, 1145.888 475.525 L 1149 474.841 1149 463.862 C 1149 451.865, 1148.090 450.740, 1145.524 459.566 C 1144.087 464.507, 1141.852 467.186, 1140.387 465.721 C 1140.098 465.431, 1140.404 462.437, 1141.067 459.067 C 1141.730 455.696, 1142.016 452.683, 1141.703 452.369 C 1141.390 452.056, 1138.752 456.674, 1135.843 462.632 M 411 465.145 C 398.592 472.631, 394.296 476.116, 392.129 480.456 C 390.893 482.931, 389.621 486.562, 389.302 488.525 C 388.625 492.698, 390.901 510, 392.127 510 C 394.236 510, 410.320 501.837, 413.935 498.932 C 416.156 497.147, 418.853 493.845, 419.929 491.593 C 421.939 487.387, 425.563 470.229, 424.637 469.303 C 424.352 469.019, 422.855 471.163, 421.310 474.069 C 417.464 481.300, 414.806 483.844, 410.318 484.586 C 406.716 485.183, 406.307 485.637, 403.095 492.609 C 400.770 497.655, 399.138 500, 397.952 500 C 394.717 500, 394.945 496.897, 398.706 489.740 C 401.305 484.795, 402.334 481.656, 402.131 479.297 C 401.891 476.509, 402.504 475.279, 405.670 472.200 C 407.777 470.151, 411.075 467.264, 413 465.784 C 417.179 462.572, 415.928 462.172, 411 465.145 M 459.692 467.250 C 464.110 471.905, 466.307 476.716, 465.609 480.206 C 465.161 482.446, 465.962 484.846, 469.011 490.403 C 473.446 498.482, 473.944 501, 471.111 501 C 469.766 501, 468.041 498.729, 465.118 493.109 C 461.522 486.198, 460.421 484.925, 456.256 482.859 C 452.001 480.748, 451.245 479.842, 449.074 474.250 C 447.740 470.813, 446.277 468, 445.824 468 C 444.716 468, 444.774 469.059, 446.435 479.295 C 448.068 489.352, 450.802 494.782, 457.100 500.471 C 461.280 504.248, 477.650 512.684, 478.720 511.613 C 479.866 510.467, 481.272 493.298, 480.591 488.761 C 479.591 482.090, 474.624 475.418, 466.065 469.250 C 457.796 463.291, 455.145 462.459, 459.692 467.250 M 451.554 469.256 C 454.134 477.705, 457.355 480.888, 461.256 478.844 C 462.857 478.005, 462.880 477.669, 461.521 475.041 C 460.036 472.169, 456.139 468.918, 452.685 467.669 C 451.172 467.122, 450.983 467.386, 451.554 469.256 M 414 469.949 C 406.147 474.123, 403.718 480, 409.846 480 C 413.225 480, 414.012 479.182, 416.816 472.750 C 419.125 467.457, 418.973 467.306, 414 469.949 M 1145.495 480.456 C 1141.649 482.102, 1138.934 486.718, 1140.062 489.694 C 1140.520 490.900, 1143.319 494.411, 1146.283 497.496 L 1151.673 503.105 1157.836 496.516 C 1166.150 487.629, 1166.090 483.266, 1157.609 480.042 C 1154.236 478.759, 1154.457 478.608, 1153.673 482.730 C 1153.182 485.307, 1153.457 486.174, 1155.033 487.018 C 1156.691 487.905, 1157.193 487.671, 1158.151 485.569 C 1159.478 482.656, 1161 483.102, 1161 486.404 C 1161 489.992, 1157.702 492.401, 1154.328 491.276 C 1152.534 490.678, 1150.556 490.719, 1148.774 491.391 C 1144.968 492.828, 1142.421 490.396, 1143.478 486.335 C 1144.199 483.562, 1144.234 483.549, 1145.075 485.750 C 1146.042 488.278, 1147.040 488.560, 1148.800 486.800 C 1150.139 485.461, 1150.361 482.116, 1149.230 480.337 C 1148.672 479.461, 1147.751 479.491, 1145.495 480.456 M 769.732 490.127 C 758.170 503.730, 756.598 507.032, 757.251 516.327 C 757.529 520.272, 758.475 525.525, 759.353 528 C 761.304 533.494, 769.027 548.307, 769.627 547.706 C 769.866 547.468, 768.865 544.514, 767.403 541.143 C 765.242 536.160, 764.976 534.733, 765.985 533.518 C 767.752 531.389, 768.804 532.417, 771.705 539.105 C 773.111 542.347, 774.653 545, 775.131 545 C 775.609 545, 776 540.325, 776 534.611 L 776 524.223 772.675 523.599 C 765.277 522.211, 760.992 512.982, 765.455 508.050 C 768.082 505.146, 771.650 505.496, 775.154 509 C 778.551 512.397, 779 512.581, 779 510.573 C 779 508.758, 783.721 505, 786 505 C 786.952 505, 788.916 505.933, 790.365 507.073 C 793.471 509.516, 793.854 513.746, 791.352 517.981 C 789.733 520.722, 784.349 524, 781.466 524 C 780.317 524, 780.012 525.460, 780.058 530.750 C 780.089 534.462, 780.432 539.287, 780.820 541.470 L 781.524 545.440 783.986 539.241 C 787.663 529.984, 791.781 529.854, 788.563 539.096 C 786.113 546.132, 786.535 548.148, 789.535 543.734 C 796.395 533.638, 801.041 516.031, 799.064 507.619 C 797.960 502.924, 793.118 495.836, 784.744 486.655 L 778.500 479.811 769.732 490.127 M 775.073 495.635 C 773.933 497.084, 773 498.867, 773 499.596 C 773 501.413, 777.005 505, 779.034 505 C 781.049 505, 784 501.914, 784 499.806 C 784 497.726, 780.181 493, 778.500 493 C 777.755 493, 776.212 494.186, 775.073 495.635 M 777 498.378 C 777 499.135, 777.622 500.272, 778.383 500.903 C 780.160 502.378, 781.400 499.800, 779.722 498.122 C 778.198 496.598, 777 496.710, 777 498.378 M 768.500 512 C 767.559 514.965, 768.717 517.550, 771.566 518.848 C 772.957 519.482, 774.528 520, 775.059 520 C 776.342 520, 775.034 511.726, 773.598 510.765 C 771.560 509.401, 769.139 509.988, 768.500 512 M 780.918 512.153 C 780.413 513.097, 780 515.225, 780 516.882 C 780 519.814, 780.084 519.867, 783.078 518.823 C 786.801 517.525, 788.882 513.767, 787.080 511.597 C 785.489 509.679, 782.077 509.987, 780.918 512.153 M 630.043 514.139 C 623.792 515.175, 615.142 518.892, 610.187 522.671 C 606.056 525.822, 601.331 533.057, 599.876 538.461 C 598.718 542.762, 599.637 559.839, 600.947 558.352 C 601.359 557.883, 602.440 554.389, 603.349 550.587 C 605.846 540.137, 613.376 529, 617.944 529 C 619.075 529, 620 529.241, 620 529.536 C 620 529.831, 617.758 532.998, 615.018 536.573 C 611.621 541.004, 609.357 545.307, 607.904 550.090 C 606.732 553.949, 605.937 557.264, 606.136 557.457 C 606.953 558.245, 621.649 546.201, 624.585 542.338 C 626.324 540.049, 629.142 534.322, 630.846 529.612 C 632.551 524.901, 635.088 519.237, 636.485 517.024 C 639.361 512.468, 639.567 512.560, 630.043 514.139 M 260.126 516.467 C 276.463 522.182, 297.081 535.200, 294.313 538.051 C 293.384 539.009, 291.337 538.126, 284.875 533.981 C 276.390 528.538, 260.696 520.813, 255.656 519.600 L 252.813 518.915 257.156 525.132 C 268.710 541.669, 275.999 546.669, 299.494 554.173 C 308.291 556.982, 317.441 560.117, 319.828 561.140 C 322.214 562.163, 324.006 562.663, 323.809 562.250 C 319.738 553.711, 307.349 536.230, 300.422 529.251 C 289.387 518.132, 278.281 513.912, 260.500 514.082 L 253.500 514.149 260.126 516.467 M 782 515 C 782 515.550, 782.423 516, 782.941 516 C 783.459 516, 784.160 515.550, 784.500 515 C 784.840 514.450, 784.416 514, 783.559 514 C 782.702 514, 782 514.450, 782 515 M 713.750 520.731 C 706.214 521.852, 703 522.732, 703 523.673 C 703 526.191, 707.869 545.632, 709.555 549.846 C 712.970 558.381, 724.217 564.735, 737.499 565.630 C 741.349 565.890, 746.177 566.244, 748.226 566.417 C 750.276 566.590, 751.712 566.342, 751.417 565.866 C 751.123 565.390, 750.346 564.997, 749.691 564.994 C 746.286 564.978, 741 562.754, 741 561.336 C 741 560, 741.965 559.870, 747.500 560.463 C 751.075 560.846, 753.989 560.786, 753.976 560.330 C 753.963 559.873, 749.904 557.112, 744.955 554.194 L 735.959 548.889 732.251 551.944 C 727.838 555.583, 723.445 555.925, 719.635 552.927 C 713.966 548.468, 718.262 539.002, 725.315 540.413 C 726.880 540.726, 727.998 540.649, 727.798 540.241 C 727.599 539.833, 726.796 538.221, 726.015 536.657 C 724.780 534.185, 724.788 533.469, 726.078 531.170 C 729.230 525.555, 736.550 526.086, 739.046 532.111 C 740.200 534.896, 739.997 539.921, 738.604 543.098 C 738.061 544.335, 740.043 545.973, 747.374 550.348 C 752.584 553.457, 757.443 556, 758.173 556 C 758.902 556, 757.587 554.252, 755.250 552.116 C 747.954 545.447, 750.334 542.170, 757.820 548.578 C 760.119 550.546, 762 551.764, 762 551.286 C 762 549.159, 751.700 533.998, 746.948 529.129 C 737.851 519.809, 731.219 518.131, 713.750 520.731 M 823.500 520.925 C 818.324 522.202, 814.409 524.751, 809.880 529.792 C 805.585 534.573, 795.634 550.967, 796.501 551.834 C 796.743 552.076, 798.260 550.863, 799.872 549.137 C 801.484 547.412, 803.531 546, 804.422 546 C 805.848 546, 805.802 546.468, 804.035 549.932 C 802.931 552.095, 801.572 554.146, 801.014 554.491 C 800.456 554.836, 800 555.515, 800 556.001 C 800 556.850, 810.616 550.659, 816.342 546.470 C 818.862 544.626, 819.015 544.170, 818.005 541.514 C 814.950 533.477, 821.312 524.118, 827.733 527.205 C 829.215 527.917, 831.108 529.714, 831.940 531.198 C 833.345 533.705, 833.292 534.114, 831.196 536.948 L 828.940 540 831.914 540 C 835.507 540, 839.685 543.480, 840.558 547.200 C 841.047 549.282, 840.608 550.483, 838.641 552.450 C 834.666 556.424, 831.065 555.842, 822.981 549.915 C 821.779 549.034, 819.688 549.864, 812.981 553.884 C 808.316 556.679, 803.825 559.425, 803 559.987 C 801.954 560.699, 803.882 560.817, 809.376 560.375 C 815.701 559.866, 817.165 560.004, 816.808 561.075 C 816.365 562.404, 814.077 563.168, 806.500 564.515 C 802.678 565.194, 802.611 565.268, 805 566.176 C 808.633 567.558, 825.623 566.090, 831.500 563.887 C 838.374 561.309, 845.053 555.285, 848.163 548.855 C 850.274 544.491, 854.010 528.858, 854.002 524.426 C 854.001 523.799, 849.320 522.834, 842.750 522.106 C 836.563 521.421, 830.375 520.708, 829 520.523 C 827.625 520.337, 825.150 520.518, 823.500 520.925 M 713.750 529.080 C 711.582 530.343, 711.494 533.833, 713.557 536.777 C 716.514 540.999, 722 538.521, 722 532.964 C 722 528.768, 717.733 526.760, 713.750 529.080 M 837.035 530.934 C 835.492 533.818, 835.778 536.489, 837.829 538.345 C 841.266 541.455, 844.188 540.084, 845.531 534.731 C 845.956 533.040, 845.746 531.399, 844.989 530.487 C 843.193 528.323, 838.285 528.599, 837.035 530.934 M 716.798 533.075 C 717.091 535.073, 717.591 535.809, 718.224 535.176 C 719.266 534.134, 718.373 530, 717.106 530 C 716.688 530, 716.550 531.384, 716.798 533.075 M 729.206 534.042 C 728.079 535.846, 728.304 536.458, 731.133 539.287 L 734.337 542.490 735.284 539.647 C 737.198 533.905, 732.181 529.278, 729.206 534.042 M 822.427 534.435 C 822.073 535.846, 822.085 538.201, 822.453 539.669 L 823.123 542.338 826.301 539.161 C 828.890 536.572, 829.276 535.660, 828.387 534.241 C 826.574 531.349, 823.174 531.460, 822.427 534.435 M 840.531 533.293 C 840.103 534.279, 840.034 535.367, 840.376 535.710 C 841.392 536.725, 842.211 535.299, 841.743 533.328 C 841.329 531.581, 841.275 531.580, 840.531 533.293 M 722.569 544.326 C 719.859 546.307, 721.335 550.009, 724.817 549.968 C 727.588 549.935, 731.006 547.954, 730.992 546.390 C 730.985 545.576, 726.425 543, 724.992 543 C 724.657 543, 723.566 543.597, 722.569 544.326 M 827.454 544.410 C 825.563 545.793, 825.562 545.858, 827.418 547.910 C 829.915 550.668, 835 550.777, 835 548.071 C 835 545.900, 832.496 543, 830.620 543 C 829.939 543, 828.515 543.634, 827.454 544.410 M 829.553 545.915 C 829.231 546.436, 829.394 547.125, 829.915 547.447 C 830.436 547.769, 831.125 547.606, 831.447 547.085 C 831.769 546.564, 831.606 545.875, 831.085 545.553 C 830.564 545.231, 829.875 545.394, 829.553 545.915 M 769.500 551.896 C 765.559 553.721, 761.896 557.123, 758.653 561.973 C 755.961 565.998, 756.592 571.431, 760.647 579.148 C 763.531 584.636, 765.248 586.647, 768.851 588.759 C 782.267 596.621, 799 585.978, 799 569.584 C 799 563.524, 793.820 555.322, 788.093 552.315 C 782.650 549.456, 775.135 549.287, 769.500 551.896 M 769.922 557.274 C 764.263 561.087, 761.748 565.706, 762.271 571.324 C 762.803 577.032, 765.247 580.676, 770.594 583.734 C 778.023 587.981, 786.255 585.834, 790.534 578.532 C 793.564 573.361, 793.702 568.082, 790.956 562.409 C 787.404 555.072, 776.969 552.525, 769.922 557.274 M 772.420 561.885 C 763.883 567.092, 766.686 579.343, 776.724 580.690 C 780.566 581.205, 781.260 580.940, 784.472 577.728 C 788.369 573.831, 788.861 570.996, 786.585 565.548 C 784.201 559.843, 778.281 558.312, 772.420 561.885 M 1000.410 566.525 C 1003.406 573.957, 1015.987 607.643, 1015.993 608.250 C 1016.006 609.646, 1013.319 609.010, 1011.766 607.250 C 1010.239 605.520, 1005.708 594.012, 1000.447 578.500 C 998.955 574.100, 997.390 570.119, 996.970 569.653 C 995.930 568.500, 994.605 589.016, 995.326 595.105 C 996.190 602.400, 999.263 608.376, 1005.527 614.943 C 1012.804 622.572, 1031.996 635.338, 1033.671 633.663 C 1033.933 633.400, 1033.495 631.907, 1032.697 630.343 C 1031.899 628.779, 1030.719 623.450, 1030.075 618.500 C 1028.410 605.703, 1026.131 596.278, 1023.303 590.500 C 1019.680 583.096, 1011.790 574.129, 1002.395 566.739 C 999.774 564.677, 999.659 564.664, 1000.410 566.525 M 735 574.242 C 726.239 575.110, 716.553 579.366, 712.570 584.099 C 711.166 585.768, 709.147 590.141, 708.085 593.817 C 703.054 611.214, 701.924 615.034, 701.428 616.326 C 700.857 617.815, 704.993 618.434, 723.749 619.665 C 735.031 620.406, 740.327 618.750, 746.426 612.576 C 750.468 608.486, 758.609 595.211, 759.748 590.855 C 760.275 588.841, 760.014 588.937, 757.421 591.715 C 754.521 594.821, 750 596.963, 750 595.231 C 750 594.735, 751.642 592.221, 753.648 589.646 C 755.655 587.070, 757.117 584.801, 756.898 584.604 C 756.679 584.406, 752.340 586.768, 747.256 589.854 C 739.284 594.691, 738.115 595.741, 738.756 597.482 C 740.074 601.058, 739.508 607.576, 737.630 610.441 C 736.042 612.866, 735.343 613.155, 732.278 612.658 C 725.476 611.554, 722.957 606.047, 726.665 600.389 L 728.330 597.847 724.759 598.517 C 721.907 599.052, 720.771 598.771, 719.119 597.119 C 716.130 594.130, 715.473 590.453, 717.402 587.509 C 720.565 582.682, 726.920 583.321, 733.091 589.085 L 736.096 591.892 744.798 586.280 C 755.251 579.537, 754.475 580.141, 753.694 579.361 C 753.342 579.009, 750.302 579.494, 746.938 580.438 C 743.573 581.381, 740.580 581.914, 740.287 581.620 C 738.753 580.086, 741.597 577.843, 746.965 576.350 C 750.287 575.426, 752.798 574.465, 752.547 574.213 C 751.778 573.444, 742.914 573.459, 735 574.242 M 812.250 575.621 C 818.238 577.281, 818.558 577.569, 817.060 579.936 C 816.272 581.182, 815.209 581.171, 809.046 579.847 C 805.138 579.008, 802.066 578.675, 802.220 579.107 C 802.538 579.998, 819.837 591, 820.921 591 C 821.309 591, 822.898 589.672, 824.453 588.049 C 829.469 582.813, 835.937 583.276, 839.050 589.093 C 841.328 593.349, 837.318 600, 832.474 600 C 830.001 600, 829.980 600.061, 831.471 602.944 C 835.321 610.388, 826.320 616.411, 820.317 610.408 C 817.886 607.977, 817.761 607.387, 818.304 600.908 C 818.623 597.109, 818.549 594, 818.140 594 C 817.732 594, 813.258 591.554, 808.199 588.564 C 803.139 585.575, 799 583.523, 799 584.006 C 799 584.488, 801.025 586.936, 803.500 589.447 C 805.975 591.958, 808 594.459, 808 595.006 C 808 597.157, 803.809 595.822, 800.132 592.500 C 798.001 590.575, 795.932 589, 795.534 589 C 793.481 589, 805.416 606.366, 811.735 612.573 C 816.131 616.891, 824.239 620.976, 828.441 620.990 C 830.059 620.996, 836.942 620.028, 843.737 618.841 C 854.089 617.032, 855.994 616.426, 855.485 615.101 C 855.152 614.232, 853.749 608.701, 852.368 602.811 C 849.574 590.897, 846.772 586.021, 839.833 580.994 C 834.184 576.902, 827.304 575.022, 816 574.481 L 806.500 574.027 812.250 575.621 M 1401.497 587.925 C 1397.339 588.924, 1389.170 593.133, 1383.908 596.989 C 1379.732 600.048, 1379.658 600.185, 1382.500 599.591 C 1398.799 596.183, 1423.119 597.271, 1421.702 601.345 C 1421.421 602.151, 1418.043 602.399, 1410.524 602.165 C 1401.136 601.872, 1383.974 603.378, 1381.733 604.690 C 1381.311 604.937, 1385.811 607.533, 1391.733 610.459 C 1405.606 617.315, 1411.285 618.390, 1426.141 616.978 C 1432.389 616.385, 1440.425 615.956, 1444 616.025 C 1447.575 616.095, 1450.850 616.118, 1451.279 616.076 C 1452.519 615.955, 1439.262 600.374, 1435.191 597.168 C 1425.133 589.247, 1411.533 585.516, 1401.497 587.925 M 722.250 588.662 C 720.234 589.476, 720.785 593.815, 723.059 595.031 C 725.216 596.186, 731 595.442, 731 594.009 C 731 593.035, 725.161 587.963, 724.173 588.079 C 723.803 588.122, 722.938 588.385, 722.250 588.662 M 827.668 590.859 L 824.836 592.747 828.050 595.035 C 831.946 597.810, 834.500 596.763, 834.500 592.391 C 834.500 588.773, 831.728 588.152, 827.668 590.859 M 787.437 593.695 C 789.647 599.456, 791.131 605.079, 790.839 606.587 C 790.061 610.598, 787.857 608.961, 784.616 601.964 C 781.688 595.641, 779.969 593.855, 780.560 597.750 C 780.665 598.438, 780.806 602.795, 780.875 607.433 C 780.990 615.224, 781.170 615.919, 783.231 616.573 C 790.280 618.810, 794.541 625.999, 791.537 630.584 C 788.960 634.517, 785.608 635.628, 782.487 633.584 C 781.060 632.649, 779.644 631.235, 779.339 630.442 C 778.547 628.376, 776.242 628.663, 775.527 630.916 C 774.709 633.491, 769.650 635.197, 766.445 633.979 C 763.076 632.698, 761.552 628.495, 763.101 624.755 C 764.493 621.395, 769.327 617.448, 773.250 616.469 L 776 615.783 776 605.892 C 776 600.451, 775.609 596, 775.131 596 C 774.653 596, 773.090 598.700, 771.659 602 C 770.228 605.300, 768.625 608, 768.096 608 C 766.077 608, 766.034 604.088, 768.002 599.496 C 769.128 596.868, 769.874 594.541, 769.659 594.325 C 768.853 593.520, 761.083 607.812, 758.943 614.035 C 757.703 617.643, 756.672 623.184, 756.610 626.573 C 756.481 633.676, 757.301 635.147, 769.772 650.192 L 777.806 659.884 783.206 654.192 C 790.080 646.947, 796.536 638.354, 798.002 634.500 C 799.578 630.360, 799.373 618.293, 797.645 613.480 C 796.859 611.291, 794.593 606.011, 792.608 601.746 C 790.624 597.481, 789 593.543, 789 592.996 C 789 592.448, 788.502 592, 787.893 592 C 787.263 592, 787.066 592.731, 787.437 593.695 M 821.958 599.611 C 819.983 604.805, 824.345 610.084, 827.776 606.652 C 829.810 604.619, 828.558 600.428, 825.267 598.254 C 823.168 596.867, 822.970 596.949, 821.958 599.611 M 730.685 600.657 C 727.580 602.284, 727.300 605.544, 730.114 607.307 C 732.866 609.031, 735 607.407, 735 603.590 C 735 599.293, 734.255 598.787, 730.685 600.657 M 837 602 C 833.166 605.834, 835.336 611.058, 840.827 611.214 C 845.155 611.337, 846.281 610.015, 845.481 605.750 C 845.034 603.367, 844.033 601.880, 842.364 601.120 C 839.203 599.680, 839.343 599.657, 837 602 M 714.313 601.786 C 712.706 602.807, 710.797 608.028, 711.428 609.672 C 712.070 611.345, 719.158 611.442, 720.800 609.800 C 724.742 605.858, 719.022 598.791, 714.313 601.786 M 715.028 605.467 C 713.938 606.780, 714.143 607, 716.461 607 C 718.105 607, 719.011 606.534, 718.771 605.813 C 718.150 603.949, 716.420 603.789, 715.028 605.467 M 838.222 606.166 C 838.739 607.716, 841.881 607.976, 842.250 606.500 C 842.388 605.950, 841.437 605.350, 840.139 605.166 C 838.520 604.937, 837.917 605.251, 838.222 606.166 M 754.297 609.701 C 753.309 611.187, 750.336 614.589, 747.691 617.262 L 742.881 622.121 747.160 621.810 L 751.438 621.500 754.109 614.250 C 755.578 610.263, 756.625 607, 756.436 607 C 756.248 607, 755.285 608.216, 754.297 609.701 M 634 617.720 C 615.257 619.859, 603.104 627.241, 593.015 642.613 C 588.416 649.620, 583.209 661.543, 584.280 662.614 C 584.582 662.915, 585.655 662.726, 586.664 662.193 C 587.674 661.659, 593.900 659.789, 600.500 658.037 C 620.933 652.612, 630.560 646.534, 639.209 633.598 C 641.451 630.244, 644.198 626.489, 645.314 625.254 C 646.429 624.019, 647.087 622.753, 646.776 622.442 C 645.936 621.603, 627.040 631.317, 617.335 637.578 C 611.291 641.477, 608.440 642.786, 607.336 642.168 C 606.083 641.467, 606.613 640.645, 610.146 637.809 C 619.607 630.213, 639.683 619.026, 643.927 618.985 C 644.792 618.976, 646.175 618.533, 647 618 C 648.533 617.009, 641.542 616.859, 634 617.720 M 771.228 622.230 C 768.869 623.367, 767.330 627.106, 768.465 628.943 C 770.443 632.143, 776 628.255, 776 623.671 C 776 620.809, 774.880 620.470, 771.228 622.230 M 780.500 624.640 C 780.500 628.906, 782.942 631.157, 785.690 629.423 C 788.358 627.741, 788.340 626.249, 785.619 623.528 C 782.041 619.950, 780.500 620.284, 780.500 624.640 M 782 625 C 782 625.550, 782.477 626, 783.059 626 C 783.641 626, 783.840 625.550, 783.500 625 C 783.160 624.450, 782.684 624, 782.441 624 C 782.198 624, 782 624.450, 782 625 M 775.380 637.529 L 772.850 640.059 774.726 643.279 C 777.054 647.277, 780.241 647.922, 782.403 644.834 C 784.513 641.822, 784.424 638.694, 782.171 636.655 C 779.676 634.397, 778.341 634.569, 775.380 637.529 M 777.218 641.154 C 777.737 642.712, 779.974 642.984, 780.053 641.500 C 780.082 640.950, 779.355 640.345, 778.438 640.154 C 777.395 639.939, 776.938 640.313, 777.218 641.154 M 1163 684.669 C 1163 686.912, 1172.213 700.348, 1177.132 705.278 C 1188.098 716.271, 1200.308 719.542, 1214.989 715.423 C 1222.267 713.381, 1223.557 712, 1218.187 712 C 1210.211 712, 1188.525 705.276, 1186.634 702.217 C 1186.358 701.770, 1186.459 700.875, 1186.859 700.229 C 1187.387 699.374, 1189.623 699.836, 1195.043 701.917 C 1202.161 704.651, 1220.714 708.606, 1222.904 707.856 C 1224.783 707.212, 1205.645 693.039, 1200.050 690.932 C 1196.285 689.513, 1190.453 688.600, 1181.185 687.979 C 1171.978 687.361, 1167.022 686.589, 1165.385 685.517 C 1164.073 684.657, 1163 684.276, 1163 684.669" stroke="none" fill="#caa037" fill-rule="evenodd"/>
</svg>